<svg width="41" height="19" viewBox="0 0 41 19" fill="none" xmlns="http://www.w3.org/2000/svg">
<mask id="path-1-inside-1_4_1068" fill="white">
<path d="M0.653152 5.47565C0.769753 2.56469 3.22413 0.283669 6.12531 0.549052C17.0245 1.54605 27.6779 4.32228 37.6454 8.76272C40.3483 9.96685 41.3625 13.2245 39.9738 15.8373C38.6145 18.3948 35.4599 19.3719 32.8086 18.2061C24.2241 14.4315 15.076 12.0387 5.71662 11.1199C2.81132 10.8347 0.536316 8.39258 0.653152 5.47565Z"/>
</mask>
<path d="M0.653152 5.47565C0.769753 2.56469 3.22413 0.283669 6.12531 0.549052C17.0245 1.54605 27.6779 4.32228 37.6454 8.76272C40.3483 9.96685 41.3625 13.2245 39.9738 15.8373C38.6145 18.3948 35.4599 19.3719 32.8086 18.2061C24.2241 14.4315 15.076 12.0387 5.71662 11.1199C2.81132 10.8347 0.536316 8.39258 0.653152 5.47565Z" stroke="#FFC960" stroke-width="16.5287" stroke-linecap="round" stroke-linejoin="round" mask="url(#path-1-inside-1_4_1068)"/>
</svg>
