<svg width="217" height="45" viewBox="0 0 217 45" fill="none" xmlns="http://www.w3.org/2000/svg">
<path d="M68.1153 25.175C68.1153 26.9671 67.4682 28.379 66.1739 29.4108C64.8887 30.4426 63.0966 30.9585 60.7977 30.9585C58.6798 30.9585 56.8062 30.5603 55.1771 29.7638V25.8538C56.5166 26.4512 57.648 26.8721 58.5711 27.1164C59.5034 27.3608 60.3542 27.483 61.1235 27.483C62.0467 27.483 62.7527 27.3065 63.2414 26.9535C63.7392 26.6005 63.9881 26.0756 63.9881 25.3787C63.9881 24.9895 63.8795 24.6455 63.6623 24.3469C63.4451 24.0391 63.1238 23.745 62.6984 23.4644C62.282 23.1838 61.4267 22.7358 60.1324 22.1203C58.9196 21.5501 58.01 21.0025 57.4036 20.4776C56.7972 19.9526 56.3129 19.3417 55.9509 18.6448C55.5889 17.9479 55.4079 17.1333 55.4079 16.201C55.4079 14.4452 56.0007 13.0649 57.1864 12.0602C58.3811 11.0556 60.0283 10.5533 62.1282 10.5533C63.16 10.5533 64.142 10.6755 65.0742 10.9198C66.0155 11.1642 66.9975 11.5081 68.0203 11.9516L66.6627 15.2235C65.6037 14.7891 64.7258 14.4859 64.0288 14.3139C63.341 14.142 62.6622 14.056 61.9924 14.056C61.1959 14.056 60.585 14.2415 60.1596 14.6126C59.7342 14.9837 59.5215 15.4679 59.5215 16.0653C59.5215 16.4364 59.6075 16.7622 59.7794 17.0428C59.9514 17.3143 60.2229 17.5813 60.594 17.8438C60.9742 18.0972 61.8657 18.5588 63.2686 19.2286C65.124 20.1156 66.3957 21.0071 67.0835 21.9031C67.7714 22.7901 68.1153 23.8807 68.1153 25.175ZM80.4704 30.687L79.6694 28.6234H79.5607C78.8638 29.5013 78.1443 30.1123 77.4021 30.4562C76.669 30.7911 75.7096 30.9585 74.5239 30.9585C73.0667 30.9585 71.9173 30.5422 71.0755 29.7095C70.2428 28.8768 69.8265 27.6912 69.8265 26.1525C69.8265 24.5414 70.3876 23.3558 71.51 22.5955C72.6413 21.8262 74.3429 21.4008 76.6147 21.3193L79.2485 21.2379V20.5726C79.2485 19.034 78.4611 18.2646 76.8862 18.2646C75.6734 18.2646 74.2479 18.6312 72.6096 19.3643L71.2384 16.5676C72.9853 15.6535 74.9222 15.1964 77.0491 15.1964C79.0856 15.1964 80.6469 15.6399 81.733 16.5269C82.8191 17.4139 83.3621 18.7624 83.3621 20.5726V30.687H80.4704ZM79.2485 23.6545L77.6465 23.7088C76.4427 23.745 75.5467 23.9622 74.9584 24.3604C74.37 24.7587 74.0759 25.3651 74.0759 26.1797C74.0759 27.3472 74.7457 27.931 76.0852 27.931C77.0446 27.931 77.8094 27.655 78.3796 27.1029C78.9589 26.5507 79.2485 25.8176 79.2485 24.9035V23.6545ZM91.2234 30.687H87.0826V9.56219H91.2234V30.687ZM104.665 30.687L103.864 28.6234H103.755C103.058 29.5013 102.338 30.1123 101.596 30.4562C100.863 30.7911 99.9037 30.9585 98.7181 30.9585C97.2609 30.9585 96.1114 30.5422 95.2697 29.7095C94.437 28.8768 94.0207 27.6912 94.0207 26.1525C94.0207 24.5414 94.5818 23.3558 95.7041 22.5955C96.8355 21.8262 98.5371 21.4008 100.809 21.3193L103.443 21.2379V20.5726C103.443 19.034 102.655 18.2646 101.08 18.2646C99.8675 18.2646 98.442 18.6312 96.8038 19.3643L95.4326 16.5676C97.1794 15.6535 99.1163 15.1964 101.243 15.1964C103.28 15.1964 104.841 15.6399 105.927 16.5269C107.013 17.4139 107.556 18.7624 107.556 20.5726V30.687H104.665ZM103.443 23.6545L101.841 23.7088C100.637 23.745 99.7408 23.9622 99.1525 24.3604C98.5642 24.7587 98.2701 25.3651 98.2701 26.1797C98.2701 27.3472 98.9398 27.931 100.279 27.931C101.239 27.931 102.004 27.655 102.574 27.1029C103.153 26.5507 103.443 25.8176 103.443 24.9035V23.6545ZM119.748 15.2235C120.31 15.2235 120.776 15.2643 121.147 15.3457L120.835 19.2286C120.5 19.1381 120.092 19.0928 119.613 19.0928C118.291 19.0928 117.259 19.4322 116.517 20.111C115.784 20.7898 115.418 21.7402 115.418 22.9621V30.687H111.277V15.5086H114.413L115.024 18.061H115.227C115.698 17.2102 116.332 16.5269 117.128 16.011C117.934 15.486 118.807 15.2235 119.748 15.2235ZM121.174 15.5086H125.709L128.574 24.0482C128.818 24.7903 128.985 25.6683 129.076 26.682H129.157C129.257 25.7497 129.452 24.8718 129.741 24.0482L132.551 15.5086H136.991L130.569 32.6284C129.981 34.2123 129.139 35.398 128.044 36.1854C126.958 36.9729 125.686 37.3666 124.229 37.3666C123.514 37.3666 122.813 37.2896 122.125 37.1358V33.8503C122.623 33.968 123.166 34.0268 123.754 34.0268C124.487 34.0268 125.125 33.8005 125.668 33.348C126.22 32.9045 126.65 32.2302 126.958 31.3251L127.202 30.5784L121.174 15.5086Z" fill="#CAE4FF"/>
<path d="M152.115 25.175C152.115 26.9671 151.468 28.379 150.174 29.4108C148.889 30.4426 147.097 30.9585 144.798 30.9585C142.68 30.9585 140.806 30.5603 139.177 29.7638V25.8538C140.517 26.4512 141.648 26.8721 142.571 27.1164C143.503 27.3608 144.354 27.483 145.124 27.483C146.047 27.483 146.753 27.3065 147.241 26.9535C147.739 26.6005 147.988 26.0756 147.988 25.3787C147.988 24.9895 147.88 24.6455 147.662 24.3469C147.445 24.0391 147.124 23.745 146.698 23.4644C146.282 23.1838 145.427 22.7358 144.132 22.1203C142.92 21.5501 142.01 21.0025 141.404 20.4776C140.797 19.9526 140.313 19.3417 139.951 18.6448C139.589 17.9479 139.408 17.1333 139.408 16.201C139.408 14.4452 140.001 13.0649 141.186 12.0602C142.381 11.0556 144.028 10.5533 146.128 10.5533C147.16 10.5533 148.142 10.6755 149.074 10.9198C150.016 11.1642 150.998 11.5081 152.02 11.9516L150.663 15.2235C149.604 14.7891 148.726 14.4859 148.029 14.3139C147.341 14.142 146.662 14.056 145.992 14.056C145.196 14.056 144.585 14.2415 144.16 14.6126C143.734 14.9837 143.521 15.4679 143.521 16.0653C143.521 16.4364 143.607 16.7622 143.779 17.0428C143.951 17.3143 144.223 17.5813 144.594 17.8438C144.974 18.0972 145.866 18.5588 147.269 19.2286C149.124 20.1156 150.396 21.0071 151.084 21.9031C151.771 22.7901 152.115 23.8807 152.115 25.175ZM160.995 30.9585C156.27 30.9585 153.908 28.3655 153.908 23.1793C153.908 20.5998 154.551 18.6312 155.836 17.2736C157.121 15.9069 158.963 15.2235 161.361 15.2235C163.117 15.2235 164.692 15.5675 166.086 16.2553L164.864 19.4594C164.212 19.1969 163.606 18.9842 163.045 18.8213C162.484 18.6493 161.923 18.5633 161.361 18.5633C159.207 18.5633 158.13 20.0929 158.13 23.1521C158.13 26.1208 159.207 27.6052 161.361 27.6052C162.158 27.6052 162.896 27.5011 163.574 27.2929C164.253 27.0757 164.932 26.7408 165.611 26.2883V29.8317C164.941 30.2571 164.262 30.5512 163.574 30.7142C162.896 30.8771 162.036 30.9585 160.995 30.9585ZM171.884 23.0707C171.884 24.5731 172.128 25.709 172.617 26.4783C173.115 27.2477 173.92 27.6323 175.033 27.6323C176.138 27.6323 176.929 27.2522 177.409 26.4919C177.898 25.7226 178.142 24.5822 178.142 23.0707C178.142 21.5682 177.898 20.4414 177.409 19.6902C176.92 18.9389 176.119 18.5633 175.006 18.5633C173.902 18.5633 173.105 18.9389 172.617 19.6902C172.128 20.4323 171.884 21.5592 171.884 23.0707ZM182.378 23.0707C182.378 25.5416 181.726 27.4739 180.423 28.8678C179.12 30.2616 177.305 30.9585 174.979 30.9585C173.522 30.9585 172.237 30.6418 171.123 30.0082C170.01 29.3656 169.155 28.4469 168.557 27.2522C167.96 26.0575 167.661 24.6636 167.661 23.0707C167.661 20.5907 168.308 18.6629 169.603 17.2871C170.897 15.9114 172.716 15.2235 175.06 15.2235C176.518 15.2235 177.803 15.5403 178.916 16.1739C180.029 16.8074 180.885 17.7171 181.482 18.9027C182.079 20.0884 182.378 21.4777 182.378 23.0707ZM193.579 30.9585C191.796 30.9585 190.398 30.3114 189.384 29.0171H189.167C189.312 30.2842 189.384 31.0174 189.384 31.2165V37.3666H185.243V15.5086H188.61L189.194 17.4772H189.384C190.353 15.9748 191.787 15.2235 193.688 15.2235C195.48 15.2235 196.883 15.9159 197.896 17.3007C198.91 18.6855 199.417 20.6088 199.417 23.0707C199.417 24.6908 199.177 26.0982 198.697 27.2929C198.227 28.4876 197.553 29.3973 196.675 30.0218C195.797 30.6463 194.765 30.9585 193.579 30.9585ZM192.357 18.5362C191.335 18.5362 190.588 18.853 190.117 19.4865C189.647 20.111 189.402 21.1474 189.384 22.5955V23.0435C189.384 24.6727 189.624 25.8403 190.104 26.5462C190.592 27.2522 191.362 27.6052 192.412 27.6052C194.267 27.6052 195.195 26.0756 195.195 23.0164C195.195 21.523 194.964 20.4052 194.502 19.663C194.05 18.9118 193.335 18.5362 192.357 18.5362ZM208.568 18.1696C207.69 18.1696 207.002 18.4502 206.504 19.0113C206.007 19.5634 205.721 20.3509 205.649 21.3736H211.46C211.442 20.3509 211.175 19.5634 210.659 19.0113C210.143 18.4502 209.446 18.1696 208.568 18.1696ZM209.152 30.9585C206.708 30.9585 204.798 30.2842 203.423 28.9357C202.047 27.5871 201.359 25.6773 201.359 23.2064C201.359 20.6631 201.993 18.6991 203.26 17.3143C204.536 15.9205 206.296 15.2235 208.541 15.2235C210.686 15.2235 212.356 15.8345 213.551 17.0563C214.745 18.2782 215.343 19.9662 215.343 22.1203V24.1296H205.554C205.599 25.3062 205.948 26.2249 206.599 26.8856C207.251 27.5463 208.165 27.8767 209.342 27.8767C210.256 27.8767 211.12 27.7817 211.935 27.5916C212.75 27.4015 213.6 27.0983 214.487 26.682V29.886C213.763 30.248 212.989 30.515 212.166 30.687C211.342 30.868 210.337 30.9585 209.152 30.9585Z" fill="white"/>
<path d="M22.7661 3.46588C28.3675 3.46588 33.4226 5.8054 37.0073 9.56061L30.1128 16.4014C28.4138 14.9514 26.211 14.0743 23.8022 14.0743C18.4293 14.0743 14.073 18.4299 14.0728 23.8028C14.0728 25.4163 14.4683 26.9367 15.1636 28.2764L6.7915 34.6553C4.45705 31.4193 3.08057 27.4464 3.08057 23.1514C3.08057 12.2794 11.8941 3.46588 22.7661 3.46588Z" fill="url(#paint0_linear_3168_7340)"/>
<rect x="22.7271" y="2.96265" width="2.0529" height="7.18515" rx="1.02645" fill="white"/>
<rect x="10.8447" y="6.28571" width="2.0529" height="7.66732" rx="1.02645" transform="rotate(-37.7379 10.8447 6.28571)" fill="white"/>
<rect x="4.75879" y="14.6215" width="2.0529" height="7.14719" rx="1.02645" transform="rotate(-61.4789 4.75879 14.6215)" fill="white"/>
<rect x="4.36182" y="25.0208" width="2.0529" height="6.1587" rx="1.02645" transform="rotate(-90 4.36182 25.0208)" fill="white"/>
<path d="M45.8868 1.21422C46.8388 1.26253 47.5753 2.07375 47.5317 3.0261L47.3207 7.63267C47.2815 8.48308 46.5602 9.13794 45.71 9.09549C44.8596 9.05257 44.2007 8.32819 44.2393 7.47763L44.2815 6.53795L29.5848 21.0953L27.4152 18.9036L42.3369 4.12321L41.0314 4.05776C40.1808 4.01482 39.5228 3.28993 39.5619 2.43908C39.601 1.5884 40.3221 0.933455 41.1726 0.976261L45.8868 1.21422Z" fill="url(#paint1_linear_3168_7340)"/>
<path d="M23.5977 13.7302C29.2665 13.7304 33.8623 18.326 33.8623 23.9949C33.8622 29.6636 29.2664 34.2594 23.5977 34.2595C17.9288 34.2595 13.3331 29.6637 13.333 23.9949C13.333 18.3259 17.9287 13.7302 23.5977 13.7302ZM23.7383 18.4656V19.4773C23.2386 19.5138 22.7833 19.6226 22.373 19.8044C21.86 20.0319 21.4566 20.3484 21.1621 20.7537C20.8706 21.1589 20.7256 21.6323 20.7285 22.1746C20.7256 22.8365 20.9435 23.3629 21.3809 23.7537C21.8182 24.1443 22.4139 24.4323 23.1689 24.616L23.7383 24.7576V27.0603C23.5453 27.0374 23.3658 26.9966 23.2002 26.9333C22.9436 26.8313 22.7376 26.6814 22.583 26.4832C22.4315 26.282 22.3456 26.0313 22.3252 25.7312H20.4922C20.5068 26.3755 20.6636 26.9159 20.9609 27.3533C21.2613 27.7878 21.6783 28.116 22.2119 28.3376C22.6566 28.5213 23.1654 28.6275 23.7383 28.6589V29.6628H24.4551V28.6599C25.0336 28.6297 25.5383 28.5249 25.9688 28.3425C26.4876 28.121 26.8841 27.8102 27.1582 27.4109C27.4352 27.0086 27.5751 26.5331 27.5781 25.9851C27.5752 25.6119 27.5071 25.2806 27.373 24.9919C27.2418 24.7033 27.0565 24.4519 26.8174 24.239C26.5783 24.0262 26.2953 23.8467 25.9688 23.7009C25.6422 23.5552 25.2832 23.4388 24.8926 23.3513L24.4551 23.2458V21.0671C24.7509 21.1055 24.9962 21.1966 25.1904 21.3396C25.4556 21.535 25.6056 21.8091 25.6406 22.1619H27.4561C27.4473 21.6283 27.3042 21.1589 27.0273 20.7537C26.7504 20.3485 26.3627 20.0319 25.8643 19.8044C25.4529 19.6157 24.9829 19.5055 24.4551 19.4734V18.4656H23.7383ZM24.4551 24.9431C24.6498 24.9994 24.8222 25.0587 24.9717 25.1228C25.1988 25.2189 25.3707 25.3356 25.4873 25.4724C25.6069 25.6095 25.667 25.779 25.667 25.9802C25.667 26.196 25.6009 26.3873 25.4697 26.5535C25.3386 26.7194 25.1538 26.8489 24.915 26.9421C24.7765 26.9969 24.6227 27.0338 24.4551 27.0564V24.9431ZM23.7383 23.0652C23.6698 23.0445 23.6023 23.0249 23.5371 23.0017C23.3651 22.9376 23.2133 22.8626 23.082 22.7781C22.9509 22.6906 22.8473 22.5871 22.7715 22.4675C22.6987 22.348 22.6651 22.2079 22.6709 22.0476C22.671 21.8554 22.7262 21.6835 22.8369 21.532C22.9506 21.3803 23.1143 21.2621 23.3271 21.1775C23.4485 21.1276 23.5857 21.0934 23.7383 21.072V23.0652Z" fill="url(#paint2_linear_3168_7340)"/>
<path d="M8.32057 30.4693C8.74897 28.7339 11.2159 28.7339 11.6443 30.4693L12.1071 32.3436C12.2594 32.9609 12.7414 33.4428 13.3587 33.5952L15.233 34.0579C16.9684 34.4863 16.9684 36.9533 15.233 37.3817L13.3587 37.8444C12.7414 37.9968 12.2594 38.4788 12.1071 39.096L11.6443 40.9704C11.2159 42.7057 8.74897 42.7057 8.32057 40.9704L7.85786 39.096C7.70548 38.4788 7.22352 37.9968 6.60624 37.8444L4.73192 37.3817C2.99656 36.9533 2.99656 34.4863 4.73192 34.0579L6.60624 33.5952C7.22352 33.4428 7.70548 32.9609 7.85786 32.3436L8.32057 30.4693Z" fill="#E7FFAA"/>
<path d="M41.4448 10.8569C43.7939 14.3089 45.1675 18.478 45.1675 22.9682C45.1674 26.4943 44.3194 29.8219 42.8179 32.7602C42.4493 33.4814 41.5586 33.7303 40.8394 33.3578C40.0497 32.9487 39.7785 31.9575 40.1733 31.1606C41.3972 28.6918 42.0864 25.9105 42.0864 22.9682C42.0864 19.308 41.0221 15.8963 39.186 13.0258L41.4448 10.8569ZM23.6118 1.41254C29.6188 1.41259 35.0515 3.8703 38.9604 7.83441L36.7388 9.96918C33.3904 6.58746 28.7457 4.49169 23.6108 4.49164C13.4068 4.49164 5.13428 12.7641 5.13428 22.9682C5.1343 25.5928 5.68252 28.0891 6.66943 30.35C6.97214 31.0435 6.79781 31.8664 6.19873 32.3286C5.44392 32.9108 4.34363 32.6868 3.95166 31.8178C2.73408 29.1179 2.05618 26.1222 2.05615 22.9682C2.05615 11.0634 11.7071 1.41254 23.6118 1.41254Z" fill="white"/>
<defs>
<linearGradient id="paint0_linear_3168_7340" x1="12.097" y1="31.8053" x2="26.9055" y2="5.97359" gradientUnits="userSpaceOnUse">
<stop stop-color="white" stop-opacity="0"/>
<stop offset="1" stop-color="#61B0F7" stop-opacity="0.6"/>
</linearGradient>
<linearGradient id="paint1_linear_3168_7340" x1="38.9819" y1="1.79482" x2="35.8869" y2="22.4308" gradientUnits="userSpaceOnUse">
<stop stop-color="#B8FE06"/>
<stop offset="1" stop-color="#C6FE37"/>
</linearGradient>
<linearGradient id="paint2_linear_3168_7340" x1="30.0401" y1="18.3485" x2="13.3127" y2="34.3893" gradientUnits="userSpaceOnUse">
<stop stop-color="#CDFF4D"/>
<stop offset="1" stop-color="white"/>
</linearGradient>
</defs>
</svg>
